<svg width="24" height="24" viewBox="0 0 24 24" fill="none" xmlns="http://www.w3.org/2000/svg">
<g clip-path="url(#clip0_4_159)">
<g filter="url(#filter0_d_4_159)">
<path fill-rule="evenodd" clip-rule="evenodd" d="M3.48883 6.00387C2.76317 7.24787 2.52434 8.97403 2.9702 10.7575C3.13065 11.3992 3.59709 12.2243 4.33633 13.174C5.06122 14.1052 5.98646 15.0787 6.96642 16.0127C8.90951 17.8648 11.0007 19.4985 12.0001 20.254C12.9995 19.4985 15.0906 17.8648 17.0337 16.0127C18.0137 15.0787 18.9389 14.1052 19.6638 13.174C20.4031 12.2243 20.8695 11.3992 21.03 10.7575C21.4758 8.97403 21.237 7.24787 20.5113 6.00387C19.803 4.78965 18.6203 4 17.0001 4C15.5905 4 14.597 5.04228 13.8945 6.44721C13.557 7.12228 13.3276 7.80745 13.1824 8.33015C13.1103 8.58959 13.0603 8.80435 13.0287 8.95172C12.9168 9.47392 12.3144 9.5 12.0001 9.5C11.6858 9.5 11.0824 9.46905 10.9715 8.95172C10.9399 8.80436 10.8899 8.58959 10.8178 8.33015C10.6726 7.80745 10.4432 7.12229 10.1057 6.44722C9.40314 5.04228 8.40962 4 7.00004 4C5.37985 4 4.19712 4.78965 3.48883 6.00387ZM12.0001 5.77011C12.0342 5.69784 12.0694 5.62535 12.1057 5.55279C12.9032 3.95772 15.4096 1 18 1C20.3798 1 21.1972 3.21035 22.2389 4.99613C23.2632 6.75212 23.5244 9.02597 22.9702 11.2425C22.7077 12.2927 22.0355 13.3832 21.242 14.4025C20.4342 15.4402 19.4328 16.4891 18.4136 17.4605C16.3743 19.4042 14.1958 21.1022 13.1811 21.8683C12.4804 22.3974 11.5198 22.3974 10.8191 21.8683C9.80439 21.1022 7.62589 19.4042 5.58654 17.4605C4.56739 16.4891 3.56592 15.4402 2.75812 14.4025C1.96467 13.3832 1.29246 12.2927 1.02992 11.2425C0.475774 9.02597 0.736944 6.75213 1.76127 4.99613C2.80297 3.21035 4.12019 1 6.5 1C9.0904 1 11.097 3.95772 11.8945 5.55278C11.9308 5.62535 11.966 5.69784 12.0001 5.77011Z" fill="#0F0F0F"/>
<!-- <path d="M2.48513 10.8788L2.48513 10.8788C2.01216 8.98685 2.25669 7.1238 3.05694 5.75194C3.84876 4.39452 5.19028 3.5 7.00004 3.5C8.70286 3.5 9.82512 4.76821 10.5529 6.2236L10.5529 6.22363C10.9091 6.93615 11.1488 7.65371 11.2995 8.19627C11.2995 8.19629 11.2995 8.19631 11.2995 8.19632L10.8178 8.33015C10.8899 8.58959 10.9399 8.80436 10.9715 8.95172L2.48513 10.8788ZM2.48513 10.8788C2.67114 11.6227 3.18912 12.5142 3.94177 13.4811L3.94178 13.4811C4.68739 14.439 5.63169 15.4313 6.62144 16.3746M2.48513 10.8788L6.62144 16.3746M6.62144 16.3746C8.58454 18.2458 10.6929 19.8926 11.6985 20.6529L12.0001 20.8808L12.3016 20.6529C13.3072 19.8926 15.4155 18.2458 17.3786 16.3746C18.3684 15.4313 19.3127 14.439 20.0583 13.4811C20.811 12.5142 21.329 11.6227 21.515 10.8788L21.515 10.8787C21.9879 8.98685 21.7434 7.1238 20.9431 5.75193C20.1513 4.39452 18.8098 3.5 17.0001 3.5C15.2972 3.5 14.175 4.76821 13.4473 6.22359L13.4472 6.22362C13.091 6.93614 12.8513 7.65371 12.7006 8.19627C12.7006 8.19629 12.7006 8.19631 12.7006 8.19632L13.1824 8.33015L6.62144 16.3746ZM11.6584 5.32919C11.6585 5.32916 11.6585 5.32912 11.6585 5.32908L11.8222 5.41098C11.789 5.3471 11.7541 5.28141 11.7175 5.21416L11.6584 5.32919ZM11.6584 5.32919C11.6204 5.40521 11.5836 5.48112 11.5479 5.55675L11.7221 5.63896L11.7221 5.63898L12.0001 5.77011M11.6584 5.32919L11.8223 5.4111C11.8473 5.45939 11.8714 5.50666 11.8945 5.55278C11.9308 5.62535 11.966 5.69784 12.0001 5.77011M12.0001 5.77011L12.278 5.63899L12.278 5.63896L12.4523 5.55675C12.4165 5.48108 12.3797 5.40515 12.3416 5.3291M12.0001 5.77011L12.3416 5.3291M12.3416 5.3291C12.3237 5.29319 12.3051 5.25661 12.286 5.21941C12.2483 5.28454 12.2128 5.3482 12.1796 5.41015L12.3416 5.3291ZM11.5479 5.98347L12.0001 6.94183L12.4523 5.98347C12.4847 5.9146 12.5183 5.84556 12.5528 5.7765L12.5529 5.77639C12.9218 5.03857 13.7079 3.95023 14.7137 3.051C15.7283 2.14392 16.8865 1.5 18 1.5C18.9986 1.5 19.6672 1.94898 20.2336 2.6442C20.6562 3.16292 20.9889 3.77122 21.3429 4.41831C21.4911 4.68933 21.6431 4.96716 21.807 5.24806C22.7565 6.87596 23.0122 9.01286 22.4851 11.1212L22.4851 11.1213C22.2481 12.0694 21.6273 13.0936 20.8474 14.0954L21.242 14.4025L20.8474 14.0954C20.0603 15.1065 19.078 16.1365 18.0686 17.0986L18.4136 17.4605L18.0686 17.0986C16.0494 19.0231 13.8882 20.7079 12.8798 21.4693L12.8798 21.4693C12.3574 21.8637 11.6428 21.8637 11.1204 21.4693L11.1203 21.4693C10.1119 20.7079 7.95074 19.0231 5.9315 17.0986C4.92217 16.1365 3.93975 15.1065 3.15267 14.0954C2.37288 13.0936 1.75203 12.0694 1.51499 11.1212L1.0303 11.2424L1.51499 11.1212C0.987884 9.01286 1.24356 6.87597 2.19316 5.24806C2.71874 4.34707 3.27959 3.40228 3.98671 2.67758C4.6828 1.96419 5.48591 1.5 6.5 1.5C7.60061 1.5 8.62875 2.13142 9.51343 3.02919C10.3911 3.91988 11.0641 5.01014 11.4472 5.77638L11.4473 5.77646C11.4818 5.84555 11.5154 5.9146 11.5479 5.98347Z" stroke="black"/> -->
</g>
</g>
<defs>
<filter id="filter0_d_4_159" x="-3.25464" y="1" width="30.5094" height="29.2651" filterUnits="userSpaceOnUse" color-interpolation-filters="sRGB">
<feFlood flood-opacity="0" result="BackgroundImageFix"/>
<feColorMatrix in="SourceAlpha" type="matrix" values="0 0 0 0 0 0 0 0 0 0 0 0 0 0 0 0 0 0 127 0" result="hardAlpha"/>
<feOffset dy="4"/>
<feGaussianBlur stdDeviation="2"/>
<feComposite in2="hardAlpha" operator="out"/>
<feColorMatrix type="matrix" values="0 0 0 0 0 0 0 0 0 0 0 0 0 0 0 0 0 0 0.25 0"/>
<feBlend mode="normal" in2="BackgroundImageFix" result="effect1_dropShadow_4_159"/>
<feBlend mode="normal" in="SourceGraphic" in2="effect1_dropShadow_4_159" result="shape"/>
</filter>
<clipPath id="clip0_4_159">
<rect width="24" height="24" fill="white"/>
</clipPath>
</defs>
</svg>
